<svg width="230" height="61" viewBox="0 0 230 61" fill="none" xmlns="http://www.w3.org/2000/svg">
<g clip-path="url(#clip0_205:2824)">
<path d="M209.734 61H0V0H230.004L209.734 61Z" fill="#FFE100"/>
<path d="M36.445 30.4556C36.449 31.8922 36.0244 33.2976 35.2251 34.494C34.4257 35.6904 33.2874 36.6239 31.9544 37.1764C30.6214 37.7289 29.1536 37.8756 27.7368 37.5978C26.3199 37.3199 25.0178 36.6302 23.9953 35.6158C22.9727 34.6014 22.2757 33.308 21.9925 31.8994C21.7093 30.4907 21.8526 29.0301 22.4043 27.7025C22.956 26.375 23.8913 25.2401 25.0917 24.4415C26.2922 23.643 27.7038 23.2167 29.1479 23.2167C31.0797 23.2167 32.9327 23.9788 34.3005 25.3357C35.6684 26.6927 36.4396 28.5339 36.445 30.4556Z" fill="white"/>
<path d="M45.088 30.4596L20.4725 16.2117L28.4222 22.7206C17.3469 23.1239 17.1483 37.3637 28.4222 38.2025L20.4765 44.7155L45.088 30.4596ZM21.8873 30.4596C21.8873 29.0239 22.3153 27.6204 23.1171 26.4267C23.9189 25.2329 25.0585 24.3025 26.3919 23.7531C27.7253 23.2037 29.1925 23.0599 30.608 23.34C32.0235 23.6201 33.3237 24.3115 34.3442 25.3266C35.3647 26.3418 36.0597 27.6353 36.3413 29.0434C36.6228 30.4515 36.4783 31.9111 35.926 33.2375C35.3737 34.5639 34.4384 35.6976 33.2384 36.4952C32.0384 37.2928 30.6276 37.7186 29.1844 37.7186C28.2258 37.7186 27.2766 37.5307 26.391 37.1656C25.5054 36.8006 24.7008 36.2655 24.0231 35.591C23.3455 34.9165 22.8081 34.1158 22.4416 33.2347C22.0751 32.3535 21.8868 31.4091 21.8873 30.4555V30.4596Z" fill="#231916"/>
<path d="M23.5452 31.9882L22.9614 33.2625H31.8801C32.7003 33.2739 33.4929 32.9677 34.0905 32.4086C34.6881 31.8495 35.0439 31.0813 35.0827 30.2662C35.2286 28.7176 33.8179 27.6328 32.4395 27.6489H25.2195L24.5708 29.0523H25.9086L24.5506 31.9882H23.5452ZM29.6261 28.9878H30.6436C31.5112 28.9555 31.2436 30.246 31.2558 30.1371C31.199 30.8066 30.6598 31.9801 29.5207 31.9277H28.2802L29.6261 28.9878Z" fill="#E60013"/>
<path d="M194.69 23.1925H174.952L173.602 26.0759H176.683L172.698 34.7747H169.621L168.287 37.6662H181.701L183.031 34.7706H180.262L181.657 31.746H190.543C191.759 31.746 193.429 31.4113 194.342 29.9272C195.765 27.6165 198.055 23.1925 194.69 23.1925ZM188.034 27.0599C187.807 27.8665 187.628 29.0562 186.064 29.0763H182.885L184.259 26.08H187.503C188.33 26.0719 188.135 26.7252 188.034 27.0599Z" fill="#231916"/>
<path d="M123.215 26.0679H125.534L126.864 23.1925H118.148L116.761 26.0679H119.238L116.688 31.6331L112.188 23.1925H103.456L102.09 26.08H104.725L100.716 34.7706H98.0686L96.7511 37.6662H105.893L107.218 34.7827H104.725L107.324 29.0199L111.998 37.6662H117.86L123.215 26.0679Z" fill="#231916"/>
<path d="M73.7127 28.9433C74.6248 27.0318 75.2978 23.1966 71.4465 23.1966H53.747L52.393 26.0841H55.1416L51.1404 34.7667H48.3877L47.0378 37.6703H64.4697C71.0087 37.6663 72.7884 30.8549 73.7127 28.9433ZM62.3171 34.7667H58.8793L62.8684 26.0962H65.3332C67.2548 25.9954 66.7115 27.4311 66.2615 29.0563C65.8116 30.6815 64.0035 34.7264 62.3049 34.7627L62.3171 34.7667Z" fill="#231916"/>
<path d="M82.6314 37.8155C82.5219 37.8155 84.4597 37.8155 86.6853 37.6784C89.5231 37.4848 92.1095 36.7871 93.4594 34.194L97.3066 26.1204H99.8079L101.162 23.2047H92.4703L91.1446 26.0801H93.6256L90.6663 32.6213C89.6812 34.3916 89.1541 34.678 86.7015 34.6376C84.2489 34.5973 84.3219 33.4883 84.8002 32.2462L87.6136 26.0841H90.0176L91.3554 23.1966H78.5004L77.1423 26.0841H79.8747C79.8747 26.0841 76.6559 33.0568 76.6032 33.202C74.8721 38.1663 80.3612 37.7187 82.6314 37.8155Z" fill="#231916"/>
<path d="M127.05 34.7747H124.371L123.053 37.6662H142.492L145.816 30.4596H143.007L139.277 34.7747H134.955L138.904 26.0759H141.385L142.715 23.1925H129.62L128.275 26.0638H131.043L127.05 34.7747Z" fill="#231916"/>
<path d="M148.658 37.4847C149.331 37.7065 154.054 38.3236 159.632 38.009C167.655 37.9606 169.694 30.8105 170.857 27.6447C171.623 25.5638 171.619 23.4426 167.022 22.9627C163.793 22.7375 160.554 22.7025 157.321 22.8578C155.229 23.0232 152.704 23.2893 150.352 25.3622C149.7 25.9429 148.273 27.802 146.586 32.3671C145.013 36.6056 148.346 37.3839 148.658 37.4847ZM154.528 31.9276C155.246 30.1123 156.112 28.3588 157.118 26.6849C157.954 25.5356 159.04 25.4751 161.606 25.6646C162.583 25.8784 163.836 26.4712 162.47 29.3627C161.274 31.8872 160.508 34.2504 159.137 34.7223C158.091 35.0812 157.013 35.1256 155.489 34.9562C154.293 34.8029 153.701 34.1254 154.528 31.9276Z" fill="#231916"/>
</g>
<defs>
<clipPath id="clip0_205:2824">
<rect width="230" height="61" fill="white"/>
</clipPath>
</defs>
</svg>
