<svg xmlns="http://www.w3.org/2000/svg" xmlns:svg="http://www.w3.org/2000/svg" viewBox="0 0 177.57922 30.50886" version="1.1" id="svg20">
  <defs id="defs20"/>
  <g id="use20" transform="matrix(1.0227273,0,0,1.0227273,0,-0.00763206)">
    <path d="m 9.47938,23.5402 h -1.1699 c -0.85883,0 -1.35207,-0.6296 -1.05836,-1.7424 0.32346,-1.2269 2.06219,-8.7569 2.06219,-8.7569 0.25158,-1.0051 1.50949,-1.357 2.86899,-1.357 1.1587,0 2.4761,0.3779 3.4836,1.1116 l 1.6843,-2.486 C 15.6598,9.25484 13.7438,8.7207 11.8811,8.7207 5.43679,8.71946 0,12.1858 0,19.2696 0,22.6863 1.91347,26.253 6.49267,26.253 H 16.5458 l 2.0424,-8.8423 h -7.6464 z" fill="#fbbd00" id="path40"/>
    <path d="m 80.9854,15.5525 c 0,-3.2643 -1.8106,-6.42945 -6.6426,-6.42945 H 64.3342 L 60.2817,26.2538 h 10.9876 c 6.194,0 9.7161,-5.376 9.7161,-10.7 z m -7.1929,-2.4117 -2.2208,9.2935 c -0.2478,1.1067 -0.8055,1.1067 -2.4154,1.1067 h -0.5676 l 2.7971,-11.7559 h 0.5899 c 1.7648,0 2.0659,0.2007 1.8168,1.3557 z" fill="#fbbd00" id="path41"/>
    <path d="m 51.9946,8.71973 c -6.2919,0 -10.8711,4.21977 -10.8711,10.44847 0,5.0241 3.7749,7.4371 8.5561,7.4371 6.9463,0 10.5192,-5.075 10.5192,-10.3506 0,-5.2757 -3.4229,-7.53497 -8.2042,-7.53497 z m 1.1576,4.42057 -2.2134,9.1435 c -0.3024,1.2059 -0.6556,1.657 -1.6607,1.657 -1.0583,0 -1.2604,-0.6023 -1.0063,-1.7574 l 2.113,-8.8919 c 0.352,-1.4574 0.6544,-1.9085 1.7623,-1.9085 0.9059,0 1.2579,0.5527 1.0051,1.7573 z" fill="#fbbd00" id="path42"/>
    <path d="m 31.208,8.71973 c -6.3415,0 -10.8711,4.21977 -10.8711,10.44847 0,5.0241 3.7749,7.4371 8.5561,7.4371 6.8942,0 10.5192,-5.075 10.5192,-10.3506 0,-5.2757 -3.423,-7.53497 -8.2042,-7.53497 z m 1.108,4.42057 -2.1639,9.1435 c -0.3023,1.2059 -0.6555,1.657 -1.7114,1.657 -1.0559,0 -1.2083,-0.6023 -0.9568,-1.7574 l 2.1143,-8.8919 c 0.3519,-1.4574 0.6556,-1.9085 1.7114,-1.9085 0.9555,0 1.3075,0.5527 1.0076,1.7585 z" fill="#fbbd00" id="path43"/>
    <path d="m 126.346,18.906 h 3.992 l 0.713,-3.0152 h -4.045 l 0.887,-3.7675 h 6.173 l 0.72,-3.01392 h -14.049 l -4.046,17.12952 h 13.987 l 0.783,-3.0635 h -6.184 z" fill="#fbbd00" id="path44"/>
    <path d="m 115.161,9.10938 -4.644,5.77632 -1.799,-5.77632 h -8.105 l 3.013,9.69502 -1.735,7.4345 h 7.856 l 1.729,-7.3329 8.076,-9.79662 z" fill="#fbbd00" id="path45"/>
    <path d="M 142.251,9.05957 131.857,26.2399 h 3.473 l 1.658,-2.7115 h 5.898 l 0.3,2.7115 h 7.701 L 149.075,9.05957 Z m -3.299,11.40153 2.981,-5.0563 0.53,5.0563 z" fill="#fbbd00" id="path46"/>
    <path d="m 173.633,13.7796 c 0,-2.4625 -1.508,-4.67218 -6.138,-4.67218 h -11.156 l -4.05,17.13078 h 7.688 l 1.67,-7.1718 1.476,7.1718 h 7.636 l -1.34,-5.8532 c 0,0 0.553,-0.3495 0.595,-0.3767 2.558,-1.6433 3.619,-4.3239 3.619,-6.2287 z m -8.05,-0.6531 c -0.227,0.9567 -1.007,4.2198 -1.007,4.2198 -0.184,0.751 -0.628,1.1042 -1.415,1.1042 -0.399,0 -1.356,0 -1.356,0 l 1.604,-6.6811 h 1.259 c 0.776,0 1.141,0.3991 0.915,1.3558 z" fill="#fbbd00" id="path47"/>
    <path d="m 114.972,3.94858 c -0.41,0.21316 -0.954,0.42384 -1.638,0.54901 -0.527,0.09542 -1.065,0.11277 -1.599,0.08179 -4.02,-0.23423 -4.296,-1.32729 -9.813,-3.624942 C 96.0677,-1.48326 90.1029,1.06969 91.0535,4.98835 c -2.1961,1.06208 -2.1576,3.20482 -1.31,4.83078 0.01,0.01859 0.0137,0.03965 0.0124,0.06072 -0.2788,3.02265 1.5715,4.88405 2.5641,5.41325 0.9097,-0.6159 1.2641,-2.2853 1.2666,-2.2964 0.6767,0.9406 1.704,1.0596 1.7078,1.0596 0.3606,-0.3582 0.4796,-1.2703 0.5143,-1.7474 0.0037,-0.0434 -0.0075,-0.295 -0.0075,-0.295 0,0 0.1686,0.181 0.2095,0.2219 0.2119,0.2144 0.4474,0.3792 0.6704,0.5043 0.1438,0.0955 0.6259,0.2925 0.8514,0.3545 0.0546,-0.4288 0.0607,-0.8886 0.0372,-1.3025 0,-0.0074 0,-0.0112 0,-0.0112 -0.0632,-0.9914 -0.321,-1.83908 -0.5626,-2.44138 -0.6507,-0.3879 -0.8539,-0.93691 -0.8539,-0.93691 1.0583,1.11413 2.6062,1.12652 3.5332,0.49944 -0.2677,-0.8514 -1.2777,-1.38925 -1.2988,-1.41156 2.2494,0.89849 3.7104,-0.21812 3.7104,-0.21812 -0.284,-0.15367 -0.643,-0.54405 -0.765,-0.84148 1.669,0.9146 3.718,0.46969 4.454,-0.13384 -0.682,-0.57752 -1.117,-1.37438 -1.117,-1.37438 0,0 -0.01,-0.01859 -0.012,-0.01983 0,0 1.918,2.00518 5.528,2.24436 3.561,0.26645 5.495,-1.46361 5.823,-3.70797 0.01,-0.08675 0.019,-0.17722 0.027,-0.27636 -0.334,0.35443 -0.731,0.61221 -1.062,0.78819 z M 91.7958,10.7052 c 0,0 -0.2702,-0.70637 -0.7807,-0.84642 -0.3049,0.09047 -0.5329,0.01116 -0.5329,0.01116 0.8241,-0.53166 0.5874,-1.54293 0.5874,-1.54293 0,0 0.466,0.44119 0.2454,1.14387 0.1834,0.13137 0.6494,0.74852 0.4808,1.23312 z m 0.9245,-5.19263 c 0.3631,-0.23423 0.7659,-0.89973 0.6693,-1.38181 -0.145,-0.13881 -0.2479,-0.33461 -0.2715,-0.59239 0,0 0.4065,0.492 0.9816,0.40401 C 94.4801,3.88414 94.6375,3.66602 94.7032,3.51854 94.5768,3.35743 94.5421,3.1765 94.5421,3.1765 c 0.7324,0.37674 1.507,-0.00124 1.4301,-0.81422 0,0 0.0025,0 0.0038,0.00124 0.0979,0.04957 0.2057,0.09419 0.3346,0.12021 0.7944,0.16483 1.2517,-0.13632 1.5689,-0.4982 -0.0892,0.73491 -0.9877,1.17362 -1.6879,1.00136 -0.0471,0.26397 -0.1933,0.55644 -0.5874,0.69896 -0.2231,0.08179 -0.4003,0.09047 -0.5416,0.06072 -0.2107,0.42136 -0.7039,0.73367 -1.2058,0.61841 -0.1574,0.56388 -0.5478,1.05217 -1.1377,1.14511 z m 2.9458,1.56647 c -0.2305,0.03718 -0.4064,0.01859 -0.5428,-0.03098 -0.3309,0.2553 -0.7163,0.38666 -1.1538,0.26521 0,0 0.6197,-0.0694 0.8589,-0.47589 -0.1661,-0.21068 -0.1698,-0.47217 -0.1698,-0.47217 0.6419,0.49324 1.6235,0.32222 2.0027,-0.33833 0,0 0.0099,0.88858 -0.9964,1.05216 z M 99.1337,4.79626 C 98.9032,4.83096 98.7148,4.81733 98.5636,4.77519 98.1968,5.26099 97.4371,5.4345 96.8695,5.13583 96.551,5.45928 96.1061,5.64642 95.6674,5.49646 95.9661,5.47044 96.4072,5.22505 96.5907,4.91399 96.4928,4.7975 96.4258,4.65498 96.406,4.48024 96.7084,4.73058 97.5536,4.98463 98.1286,4.48767 97.908,4.20635 97.9093,3.84448 97.9093,3.84448 c 0.7882,0.70268 1.9828,0.45358 2.4467,-0.48085 0,0 -0.029,1.25541 -1.2198,1.43139 z" fill="#fbbd00" id="path50"/>
    <path d="m 113.312,3.90628 c 0.287,-0.05205 0.549,-0.12021 0.786,-0.19705 0.163,-0.34081 0.259,-1.35579 -0.059,-2.11548 -0.496,1.14759 -2.134,2.0436 -3.998,2.21586 0.487,0.0818 1.032,0.14128 1.672,0.17846 0.534,0.03098 1.072,0.01363 1.599,-0.08179 z" fill="#fbbd00" id="path51"/>
    <path d="m 98.3455,18.2131 c -0.2342,-0.2677 -0.4102,-0.3049 -0.4102,-0.3049 -2.6001,2.1254 -5.7442,3.6497 -8.54,5.9325 -0.6977,0.5627 -1.3583,1.1972 -2.004,1.8181 -4.1144,4.0711 -4.4304,3.0015 -9.4893,3.1441 -0.078,0 -0.1474,0.0508 -0.1722,0.1251 -0.026,0.0818 -0.0521,0.2045 -0.0521,0.378 0,0.1921 0.0323,0.3334 0.0608,0.4226 0.0223,0.0694 0.088,0.1165 0.1611,0.1165 h 4.3933 c 2.7748,0.0074 4.9497,-2.7128 7.033,-4.573 0.2875,-0.2578 0.5676,-0.4982 0.8638,-0.7299 2.7339,-2.1998 5.7491,-3.6708 8.3194,-5.7541 0.0644,-0.0533 0.088,-0.1413 0.0582,-0.2181 -0.0347,-0.0905 -0.1004,-0.2181 -0.2206,-0.3557 z" fill="#fbbd00" id="path52"/>
    <path d="m 78.2084,28.2312 c 0.1078,0.0285 0.2367,0.0347 0.3817,0.0347 h 3.4998 c 2.1712,0 4.3313,-2.6311 6.3575,-4.4057 L 85.089,16.7119 c -0.6841,1.5367 -1.5355,3.4205 -2.5679,5.6376 -0.8464,1.8193 -1.4128,2.4934 -3.3647,3.1602 -0.8563,0.2925 -1.4772,1.0992 -1.4772,1.8924 v 0.1351 c 0,0.3135 0.15,0.5911 0.5304,0.694 z" fill="#fbbd00" id="path53"/>
    <path d="m 96.2414,18.4128 c 1.9977,-1.3719 0.87,-3.3102 0.4201,-4.0513 -0.1239,-0.2044 -0.3433,-0.6109 -0.4907,-0.8117 -0.1525,1.1885 -0.4487,1.4425 -0.4487,1.4425 -0.0446,-0.0062 -0.0954,-0.0198 -0.145,-0.0322 -0.4746,-0.1189 -1.1835,-0.5093 -1.787,-1.1897 -0.3061,1.8912 -1.3137,2.5666 -1.3137,2.5666 L 92.1703,16.1672 C 92.055,16.1052 91.278,15.669 90.5431,14.7296 90.3312,14.4582 90.1094,14.0839 89.9061,13.644 l -3.9286,0.549 3.6039,8.7532 c 2.1638,-1.6334 4.5805,-3.1057 6.66,-4.5334 z" fill="#fbbd00" id="path54"/>
    <path d="m 85.4521,16.0641 3.278,7.5857 c 0.1487,-0.1227 0.2962,-0.2417 0.4387,-0.3544 l -3.413,-8.0356 -0.3024,0.8043 z" fill="#fbbd00" id="path55"/>
    <path d="m 85.8001,12.8012 0.0371,0.6803 1.5306,-0.1598 2.31,-0.1934 c -0.0657,-0.1697 -0.1251,-0.3494 -0.1834,-0.5316 l -3.6956,0.2057 z" fill="#fbbd00" id="path56"/>
    <path d="m 88.9691,9.47168 -3.3622,1.83912 c 0.1103,0.3966 0.1364,0.6742 0.1636,1.0484 l 3.6336,-0.1586 C 89.2244,11.5029 89.1773,10.9762 89.16,10.4098 89.1575,10.2524 89.165,10.1099 89.1749,9.95501 89.0956,9.79266 89.0274,9.63155 88.9679,9.47168 Z" fill="#fbbd00" id="path57"/>
    <path d="M 84.7691,9.5506 88.6456,7.79204 C 88.6357,7.44627 88.658,7.11786 88.7026,6.81423 88.7212,6.7312 88.7373,6.64693 88.7646,6.56265 89.031,5.71745 89.6618,5.18827 90.5244,4.67273 90.481,4.43974 90.4339,4.04192 90.4971,3.59082 L 83.417,7.19717 c 0,0 0.6481,1.16742 1.155,2.01882 0.0645,0.10658 0.1314,0.21935 0.1983,0.33461 z" fill="#fbbd00" id="path58"/>
    <path d="m 88.6668,8.2239 -3.6175,1.8565 c 0.1289,0.2329 0.2429,0.4449 0.326,0.5998 l 3.408,-1.82798 C 88.73,8.63906 88.6916,8.42962 88.6656,8.22266 Z" fill="#fbbd00" id="path59"/>
  </g>
</svg>
